<?xml version="1.0" encoding="utf-8"?>
<svg xmlns="http://www.w3.org/2000/svg" xmlns:xlink="http://www.w3.org/1999/xlink"
  style="margin: auto; background: none; display: block; shape-rendering: auto;" width="163px" height="163px"
  viewBox="0 0 100 100" preserveAspectRatio="xMidYMid">
  <g transform="rotate(0 50 50)">
    <rect x="44" y="15.5" rx="6" ry="7.5" width="12" height="15" fill="#e9a431">
      <animate attributeName="opacity" values="1;0" keyTimes="0;1" dur="0.9174311926605504s"
        begin="-0.9082568807339448s" repeatCount="indefinite"></animate>
    </rect>
  </g>
  <g transform="rotate(3.6 50 50)">
    <rect x="44" y="15.5" rx="6" ry="7.5" width="12" height="15" fill="#e9a431">
      <animate attributeName="opacity" values="1;0" keyTimes="0;1" dur="0.9174311926605504s"
        begin="-0.8990825688073393s" repeatCount="indefinite"></animate>
    </rect>
  </g>
  <g transform="rotate(7.2 50 50)">
    <rect x="44" y="15.5" rx="6" ry="7.5" width="12" height="15" fill="#e9a431">
      <animate attributeName="opacity" values="1;0" keyTimes="0;1" dur="0.9174311926605504s"
        begin="-0.8899082568807338s" repeatCount="indefinite"></animate>
    </rect>
  </g>
  <g transform="rotate(10.8 50 50)">
    <rect x="44" y="15.5" rx="6" ry="7.5" width="12" height="15" fill="#e9a431">
      <animate attributeName="opacity" values="1;0" keyTimes="0;1" dur="0.9174311926605504s"
        begin="-0.8807339449541284s" repeatCount="indefinite"></animate>
    </rect>
  </g>
  <g transform="rotate(14.4 50 50)">
    <rect x="44" y="15.5" rx="6" ry="7.5" width="12" height="15" fill="#e9a431">
      <animate attributeName="opacity" values="1;0" keyTimes="0;1" dur="0.9174311926605504s"
        begin="-0.8715596330275228s" repeatCount="indefinite"></animate>
    </rect>
  </g>
  <g transform="rotate(18 50 50)">
    <rect x="44" y="15.5" rx="6" ry="7.5" width="12" height="15" fill="#e9a431">
      <animate attributeName="opacity" values="1;0" keyTimes="0;1" dur="0.9174311926605504s"
        begin="-0.8623853211009174s" repeatCount="indefinite"></animate>
    </rect>
  </g>
  <g transform="rotate(21.6 50 50)">
    <rect x="44" y="15.5" rx="6" ry="7.5" width="12" height="15" fill="#e9a431">
      <animate attributeName="opacity" values="1;0" keyTimes="0;1" dur="0.9174311926605504s"
        begin="-0.8532110091743118s" repeatCount="indefinite"></animate>
    </rect>
  </g>
  <g transform="rotate(25.2 50 50)">
    <rect x="44" y="15.5" rx="6" ry="7.5" width="12" height="15" fill="#e9a431">
      <animate attributeName="opacity" values="1;0" keyTimes="0;1" dur="0.9174311926605504s"
        begin="-0.8440366972477064s" repeatCount="indefinite"></animate>
    </rect>
  </g>
  <g transform="rotate(28.8 50 50)">
    <rect x="44" y="15.5" rx="6" ry="7.5" width="12" height="15" fill="#e9a431">
      <animate attributeName="opacity" values="1;0" keyTimes="0;1" dur="0.9174311926605504s"
        begin="-0.8348623853211008s" repeatCount="indefinite"></animate>
    </rect>
  </g>
  <g transform="rotate(32.4 50 50)">
    <rect x="44" y="15.5" rx="6" ry="7.5" width="12" height="15" fill="#e9a431">
      <animate attributeName="opacity" values="1;0" keyTimes="0;1" dur="0.9174311926605504s"
        begin="-0.8256880733944953s" repeatCount="indefinite"></animate>
    </rect>
  </g>
  <g transform="rotate(36 50 50)">
    <rect x="44" y="15.5" rx="6" ry="7.5" width="12" height="15" fill="#e9a431">
      <animate attributeName="opacity" values="1;0" keyTimes="0;1" dur="0.9174311926605504s"
        begin="-0.8165137614678898s" repeatCount="indefinite"></animate>
    </rect>
  </g>
  <g transform="rotate(39.6 50 50)">
    <rect x="44" y="15.5" rx="6" ry="7.5" width="12" height="15" fill="#e9a431">
      <animate attributeName="opacity" values="1;0" keyTimes="0;1" dur="0.9174311926605504s"
        begin="-0.8073394495412843s" repeatCount="indefinite"></animate>
    </rect>
  </g>
  <g transform="rotate(43.2 50 50)">
    <rect x="44" y="15.5" rx="6" ry="7.5" width="12" height="15" fill="#e9a431">
      <animate attributeName="opacity" values="1;0" keyTimes="0;1" dur="0.9174311926605504s"
        begin="-0.7981651376146788s" repeatCount="indefinite"></animate>
    </rect>
  </g>
  <g transform="rotate(46.8 50 50)">
    <rect x="44" y="15.5" rx="6" ry="7.5" width="12" height="15" fill="#e9a431">
      <animate attributeName="opacity" values="1;0" keyTimes="0;1" dur="0.9174311926605504s"
        begin="-0.7889908256880733s" repeatCount="indefinite"></animate>
    </rect>
  </g>
  <g transform="rotate(50.4 50 50)">
    <rect x="44" y="15.5" rx="6" ry="7.5" width="12" height="15" fill="#e9a431">
      <animate attributeName="opacity" values="1;0" keyTimes="0;1" dur="0.9174311926605504s"
        begin="-0.7798165137614678s" repeatCount="indefinite"></animate>
    </rect>
  </g>
  <g transform="rotate(54 50 50)">
    <rect x="44" y="15.5" rx="6" ry="7.5" width="12" height="15" fill="#e9a431">
      <animate attributeName="opacity" values="1;0" keyTimes="0;1" dur="0.9174311926605504s"
        begin="-0.7706422018348623s" repeatCount="indefinite"></animate>
    </rect>
  </g>
  <g transform="rotate(57.6 50 50)">
    <rect x="44" y="15.5" rx="6" ry="7.5" width="12" height="15" fill="#e9a431">
      <animate attributeName="opacity" values="1;0" keyTimes="0;1" dur="0.9174311926605504s"
        begin="-0.7614678899082568s" repeatCount="indefinite"></animate>
    </rect>
  </g>
  <g transform="rotate(61.2 50 50)">
    <rect x="44" y="15.5" rx="6" ry="7.5" width="12" height="15" fill="#e9a431">
      <animate attributeName="opacity" values="1;0" keyTimes="0;1" dur="0.9174311926605504s"
        begin="-0.7522935779816513s" repeatCount="indefinite"></animate>
    </rect>
  </g>
  <g transform="rotate(64.8 50 50)">
    <rect x="44" y="15.5" rx="6" ry="7.5" width="12" height="15" fill="#e9a431">
      <animate attributeName="opacity" values="1;0" keyTimes="0;1" dur="0.9174311926605504s"
        begin="-0.7431192660550457s" repeatCount="indefinite"></animate>
    </rect>
  </g>
  <g transform="rotate(68.4 50 50)">
    <rect x="44" y="15.5" rx="6" ry="7.5" width="12" height="15" fill="#e9a431">
      <animate attributeName="opacity" values="1;0" keyTimes="0;1" dur="0.9174311926605504s"
        begin="-0.7339449541284403s" repeatCount="indefinite"></animate>
    </rect>
  </g>
  <g transform="rotate(72 50 50)">
    <rect x="44" y="15.5" rx="6" ry="7.5" width="12" height="15" fill="#e9a431">
      <animate attributeName="opacity" values="1;0" keyTimes="0;1" dur="0.9174311926605504s"
        begin="-0.7247706422018347s" repeatCount="indefinite"></animate>
    </rect>
  </g>
  <g transform="rotate(75.6 50 50)">
    <rect x="44" y="15.5" rx="6" ry="7.5" width="12" height="15" fill="#e9a431">
      <animate attributeName="opacity" values="1;0" keyTimes="0;1" dur="0.9174311926605504s"
        begin="-0.7155963302752293s" repeatCount="indefinite"></animate>
    </rect>
  </g>
  <g transform="rotate(79.2 50 50)">
    <rect x="44" y="15.5" rx="6" ry="7.5" width="12" height="15" fill="#e9a431">
      <animate attributeName="opacity" values="1;0" keyTimes="0;1" dur="0.9174311926605504s"
        begin="-0.7064220183486237s" repeatCount="indefinite"></animate>
    </rect>
  </g>
  <g transform="rotate(82.8 50 50)">
    <rect x="44" y="15.5" rx="6" ry="7.5" width="12" height="15" fill="#e9a431">
      <animate attributeName="opacity" values="1;0" keyTimes="0;1" dur="0.9174311926605504s"
        begin="-0.6972477064220183s" repeatCount="indefinite"></animate>
    </rect>
  </g>
  <g transform="rotate(86.4 50 50)">
    <rect x="44" y="15.5" rx="6" ry="7.5" width="12" height="15" fill="#e9a431">
      <animate attributeName="opacity" values="1;0" keyTimes="0;1" dur="0.9174311926605504s"
        begin="-0.6880733944954127s" repeatCount="indefinite"></animate>
    </rect>
  </g>
  <g transform="rotate(90 50 50)">
    <rect x="44" y="15.5" rx="6" ry="7.5" width="12" height="15" fill="#e9a431">
      <animate attributeName="opacity" values="1;0" keyTimes="0;1" dur="0.9174311926605504s"
        begin="-0.6788990825688073s" repeatCount="indefinite"></animate>
    </rect>
  </g>
  <g transform="rotate(93.6 50 50)">
    <rect x="44" y="15.5" rx="6" ry="7.5" width="12" height="15" fill="#e9a431">
      <animate attributeName="opacity" values="1;0" keyTimes="0;1" dur="0.9174311926605504s"
        begin="-0.6697247706422017s" repeatCount="indefinite"></animate>
    </rect>
  </g>
  <g transform="rotate(97.2 50 50)">
    <rect x="44" y="15.5" rx="6" ry="7.5" width="12" height="15" fill="#e9a431">
      <animate attributeName="opacity" values="1;0" keyTimes="0;1" dur="0.9174311926605504s"
        begin="-0.6605504587155963s" repeatCount="indefinite"></animate>
    </rect>
  </g>
  <g transform="rotate(100.8 50 50)">
    <rect x="44" y="15.5" rx="6" ry="7.5" width="12" height="15" fill="#e9a431">
      <animate attributeName="opacity" values="1;0" keyTimes="0;1" dur="0.9174311926605504s"
        begin="-0.6513761467889907s" repeatCount="indefinite"></animate>
    </rect>
  </g>
  <g transform="rotate(104.4 50 50)">
    <rect x="44" y="15.5" rx="6" ry="7.5" width="12" height="15" fill="#e9a431">
      <animate attributeName="opacity" values="1;0" keyTimes="0;1" dur="0.9174311926605504s"
        begin="-0.6422018348623852s" repeatCount="indefinite"></animate>
    </rect>
  </g>
  <g transform="rotate(108 50 50)">
    <rect x="44" y="15.5" rx="6" ry="7.5" width="12" height="15" fill="#e9a431">
      <animate attributeName="opacity" values="1;0" keyTimes="0;1" dur="0.9174311926605504s"
        begin="-0.6330275229357797s" repeatCount="indefinite"></animate>
    </rect>
  </g>
  <g transform="rotate(111.6 50 50)">
    <rect x="44" y="15.5" rx="6" ry="7.5" width="12" height="15" fill="#e9a431">
      <animate attributeName="opacity" values="1;0" keyTimes="0;1" dur="0.9174311926605504s"
        begin="-0.6238532110091742s" repeatCount="indefinite"></animate>
    </rect>
  </g>
  <g transform="rotate(115.2 50 50)">
    <rect x="44" y="15.5" rx="6" ry="7.5" width="12" height="15" fill="#e9a431">
      <animate attributeName="opacity" values="1;0" keyTimes="0;1" dur="0.9174311926605504s"
        begin="-0.6146788990825687s" repeatCount="indefinite"></animate>
    </rect>
  </g>
  <g transform="rotate(118.8 50 50)">
    <rect x="44" y="15.5" rx="6" ry="7.5" width="12" height="15" fill="#e9a431">
      <animate attributeName="opacity" values="1;0" keyTimes="0;1" dur="0.9174311926605504s"
        begin="-0.6055045871559632s" repeatCount="indefinite"></animate>
    </rect>
  </g>
  <g transform="rotate(122.4 50 50)">
    <rect x="44" y="15.5" rx="6" ry="7.5" width="12" height="15" fill="#e9a431">
      <animate attributeName="opacity" values="1;0" keyTimes="0;1" dur="0.9174311926605504s"
        begin="-0.5963302752293578s" repeatCount="indefinite"></animate>
    </rect>
  </g>
  <g transform="rotate(126 50 50)">
    <rect x="44" y="15.5" rx="6" ry="7.5" width="12" height="15" fill="#e9a431">
      <animate attributeName="opacity" values="1;0" keyTimes="0;1" dur="0.9174311926605504s"
        begin="-0.5871559633027522s" repeatCount="indefinite"></animate>
    </rect>
  </g>
  <g transform="rotate(129.6 50 50)">
    <rect x="44" y="15.5" rx="6" ry="7.5" width="12" height="15" fill="#e9a431">
      <animate attributeName="opacity" values="1;0" keyTimes="0;1" dur="0.9174311926605504s"
        begin="-0.5779816513761468s" repeatCount="indefinite"></animate>
    </rect>
  </g>
  <g transform="rotate(133.2 50 50)">
    <rect x="44" y="15.5" rx="6" ry="7.5" width="12" height="15" fill="#e9a431">
      <animate attributeName="opacity" values="1;0" keyTimes="0;1" dur="0.9174311926605504s"
        begin="-0.5688073394495412s" repeatCount="indefinite"></animate>
    </rect>
  </g>
  <g transform="rotate(136.8 50 50)">
    <rect x="44" y="15.5" rx="6" ry="7.5" width="12" height="15" fill="#e9a431">
      <animate attributeName="opacity" values="1;0" keyTimes="0;1" dur="0.9174311926605504s"
        begin="-0.5596330275229358s" repeatCount="indefinite"></animate>
    </rect>
  </g>
  <g transform="rotate(140.4 50 50)">
    <rect x="44" y="15.5" rx="6" ry="7.5" width="12" height="15" fill="#e9a431">
      <animate attributeName="opacity" values="1;0" keyTimes="0;1" dur="0.9174311926605504s"
        begin="-0.5504587155963302s" repeatCount="indefinite"></animate>
    </rect>
  </g>
  <g transform="rotate(144 50 50)">
    <rect x="44" y="15.5" rx="6" ry="7.5" width="12" height="15" fill="#e9a431">
      <animate attributeName="opacity" values="1;0" keyTimes="0;1" dur="0.9174311926605504s"
        begin="-0.5412844036697247s" repeatCount="indefinite"></animate>
    </rect>
  </g>
  <g transform="rotate(147.6 50 50)">
    <rect x="44" y="15.5" rx="6" ry="7.5" width="12" height="15" fill="#e9a431">
      <animate attributeName="opacity" values="1;0" keyTimes="0;1" dur="0.9174311926605504s"
        begin="-0.5321100917431192s" repeatCount="indefinite"></animate>
    </rect>
  </g>
  <g transform="rotate(151.2 50 50)">
    <rect x="44" y="15.5" rx="6" ry="7.5" width="12" height="15" fill="#e9a431">
      <animate attributeName="opacity" values="1;0" keyTimes="0;1" dur="0.9174311926605504s"
        begin="-0.5229357798165137s" repeatCount="indefinite"></animate>
    </rect>
  </g>
  <g transform="rotate(154.8 50 50)">
    <rect x="44" y="15.5" rx="6" ry="7.5" width="12" height="15" fill="#e9a431">
      <animate attributeName="opacity" values="1;0" keyTimes="0;1" dur="0.9174311926605504s"
        begin="-0.5137614678899082s" repeatCount="indefinite"></animate>
    </rect>
  </g>
  <g transform="rotate(158.4 50 50)">
    <rect x="44" y="15.5" rx="6" ry="7.5" width="12" height="15" fill="#e9a431">
      <animate attributeName="opacity" values="1;0" keyTimes="0;1" dur="0.9174311926605504s"
        begin="-0.5045871559633027s" repeatCount="indefinite"></animate>
    </rect>
  </g>
  <g transform="rotate(162 50 50)">
    <rect x="44" y="15.5" rx="6" ry="7.5" width="12" height="15" fill="#e9a431">
      <animate attributeName="opacity" values="1;0" keyTimes="0;1" dur="0.9174311926605504s"
        begin="-0.49541284403669716s" repeatCount="indefinite"></animate>
    </rect>
  </g>
  <g transform="rotate(165.6 50 50)">
    <rect x="44" y="15.5" rx="6" ry="7.5" width="12" height="15" fill="#e9a431">
      <animate attributeName="opacity" values="1;0" keyTimes="0;1" dur="0.9174311926605504s"
        begin="-0.48623853211009166s" repeatCount="indefinite"></animate>
    </rect>
  </g>
  <g transform="rotate(169.2 50 50)">
    <rect x="44" y="15.5" rx="6" ry="7.5" width="12" height="15" fill="#e9a431">
      <animate attributeName="opacity" values="1;0" keyTimes="0;1" dur="0.9174311926605504s"
        begin="-0.47706422018348615s" repeatCount="indefinite"></animate>
    </rect>
  </g>
  <g transform="rotate(172.8 50 50)">
    <rect x="44" y="15.5" rx="6" ry="7.5" width="12" height="15" fill="#e9a431">
      <animate attributeName="opacity" values="1;0" keyTimes="0;1" dur="0.9174311926605504s"
        begin="-0.46788990825688065s" repeatCount="indefinite"></animate>
    </rect>
  </g>
  <g transform="rotate(176.4 50 50)">
    <rect x="44" y="15.5" rx="6" ry="7.5" width="12" height="15" fill="#e9a431">
      <animate attributeName="opacity" values="1;0" keyTimes="0;1" dur="0.9174311926605504s"
        begin="-0.45871559633027514s" repeatCount="indefinite"></animate>
    </rect>
  </g>
  <g transform="rotate(180 50 50)">
    <rect x="44" y="15.5" rx="6" ry="7.5" width="12" height="15" fill="#e9a431">
      <animate attributeName="opacity" values="1;0" keyTimes="0;1" dur="0.9174311926605504s"
        begin="-0.44954128440366964s" repeatCount="indefinite"></animate>
    </rect>
  </g>
  <g transform="rotate(183.6 50 50)">
    <rect x="44" y="15.5" rx="6" ry="7.5" width="12" height="15" fill="#e9a431">
      <animate attributeName="opacity" values="1;0" keyTimes="0;1" dur="0.9174311926605504s"
        begin="-0.4403669724770642s" repeatCount="indefinite"></animate>
    </rect>
  </g>
  <g transform="rotate(187.2 50 50)">
    <rect x="44" y="15.5" rx="6" ry="7.5" width="12" height="15" fill="#e9a431">
      <animate attributeName="opacity" values="1;0" keyTimes="0;1" dur="0.9174311926605504s"
        begin="-0.4311926605504587s" repeatCount="indefinite"></animate>
    </rect>
  </g>
  <g transform="rotate(190.8 50 50)">
    <rect x="44" y="15.5" rx="6" ry="7.5" width="12" height="15" fill="#e9a431">
      <animate attributeName="opacity" values="1;0" keyTimes="0;1" dur="0.9174311926605504s"
        begin="-0.4220183486238532s" repeatCount="indefinite"></animate>
    </rect>
  </g>
  <g transform="rotate(194.4 50 50)">
    <rect x="44" y="15.5" rx="6" ry="7.5" width="12" height="15" fill="#e9a431">
      <animate attributeName="opacity" values="1;0" keyTimes="0;1" dur="0.9174311926605504s"
        begin="-0.4128440366972477s" repeatCount="indefinite"></animate>
    </rect>
  </g>
  <g transform="rotate(198 50 50)">
    <rect x="44" y="15.5" rx="6" ry="7.5" width="12" height="15" fill="#e9a431">
      <animate attributeName="opacity" values="1;0" keyTimes="0;1" dur="0.9174311926605504s"
        begin="-0.40366972477064217s" repeatCount="indefinite"></animate>
    </rect>
  </g>
  <g transform="rotate(201.6 50 50)">
    <rect x="44" y="15.5" rx="6" ry="7.5" width="12" height="15" fill="#e9a431">
      <animate attributeName="opacity" values="1;0" keyTimes="0;1" dur="0.9174311926605504s"
        begin="-0.39449541284403666s" repeatCount="indefinite"></animate>
    </rect>
  </g>
  <g transform="rotate(205.2 50 50)">
    <rect x="44" y="15.5" rx="6" ry="7.5" width="12" height="15" fill="#e9a431">
      <animate attributeName="opacity" values="1;0" keyTimes="0;1" dur="0.9174311926605504s"
        begin="-0.38532110091743116s" repeatCount="indefinite"></animate>
    </rect>
  </g>
  <g transform="rotate(208.8 50 50)">
    <rect x="44" y="15.5" rx="6" ry="7.5" width="12" height="15" fill="#e9a431">
      <animate attributeName="opacity" values="1;0" keyTimes="0;1" dur="0.9174311926605504s"
        begin="-0.37614678899082565s" repeatCount="indefinite"></animate>
    </rect>
  </g>
  <g transform="rotate(212.4 50 50)">
    <rect x="44" y="15.5" rx="6" ry="7.5" width="12" height="15" fill="#e9a431">
      <animate attributeName="opacity" values="1;0" keyTimes="0;1" dur="0.9174311926605504s"
        begin="-0.36697247706422015s" repeatCount="indefinite"></animate>
    </rect>
  </g>
  <g transform="rotate(216 50 50)">
    <rect x="44" y="15.5" rx="6" ry="7.5" width="12" height="15" fill="#e9a431">
      <animate attributeName="opacity" values="1;0" keyTimes="0;1" dur="0.9174311926605504s"
        begin="-0.35779816513761464s" repeatCount="indefinite"></animate>
    </rect>
  </g>
  <g transform="rotate(219.6 50 50)">
    <rect x="44" y="15.5" rx="6" ry="7.5" width="12" height="15" fill="#e9a431">
      <animate attributeName="opacity" values="1;0" keyTimes="0;1" dur="0.9174311926605504s"
        begin="-0.34862385321100914s" repeatCount="indefinite"></animate>
    </rect>
  </g>
  <g transform="rotate(223.2 50 50)">
    <rect x="44" y="15.5" rx="6" ry="7.5" width="12" height="15" fill="#e9a431">
      <animate attributeName="opacity" values="1;0" keyTimes="0;1" dur="0.9174311926605504s"
        begin="-0.33944954128440363s" repeatCount="indefinite"></animate>
    </rect>
  </g>
  <g transform="rotate(226.8 50 50)">
    <rect x="44" y="15.5" rx="6" ry="7.5" width="12" height="15" fill="#e9a431">
      <animate attributeName="opacity" values="1;0" keyTimes="0;1" dur="0.9174311926605504s"
        begin="-0.33027522935779813s" repeatCount="indefinite"></animate>
    </rect>
  </g>
  <g transform="rotate(230.4 50 50)">
    <rect x="44" y="15.5" rx="6" ry="7.5" width="12" height="15" fill="#e9a431">
      <animate attributeName="opacity" values="1;0" keyTimes="0;1" dur="0.9174311926605504s"
        begin="-0.3211009174311926s" repeatCount="indefinite"></animate>
    </rect>
  </g>
  <g transform="rotate(234 50 50)">
    <rect x="44" y="15.5" rx="6" ry="7.5" width="12" height="15" fill="#e9a431">
      <animate attributeName="opacity" values="1;0" keyTimes="0;1" dur="0.9174311926605504s"
        begin="-0.3119266055045871s" repeatCount="indefinite"></animate>
    </rect>
  </g>
  <g transform="rotate(237.6 50 50)">
    <rect x="44" y="15.5" rx="6" ry="7.5" width="12" height="15" fill="#e9a431">
      <animate attributeName="opacity" values="1;0" keyTimes="0;1" dur="0.9174311926605504s"
        begin="-0.3027522935779816s" repeatCount="indefinite"></animate>
    </rect>
  </g>
  <g transform="rotate(241.2 50 50)">
    <rect x="44" y="15.5" rx="6" ry="7.5" width="12" height="15" fill="#e9a431">
      <animate attributeName="opacity" values="1;0" keyTimes="0;1" dur="0.9174311926605504s"
        begin="-0.2935779816513761s" repeatCount="indefinite"></animate>
    </rect>
  </g>
  <g transform="rotate(244.8 50 50)">
    <rect x="44" y="15.5" rx="6" ry="7.5" width="12" height="15" fill="#e9a431">
      <animate attributeName="opacity" values="1;0" keyTimes="0;1" dur="0.9174311926605504s"
        begin="-0.2844036697247706s" repeatCount="indefinite"></animate>
    </rect>
  </g>
  <g transform="rotate(248.4 50 50)">
    <rect x="44" y="15.5" rx="6" ry="7.5" width="12" height="15" fill="#e9a431">
      <animate attributeName="opacity" values="1;0" keyTimes="0;1" dur="0.9174311926605504s"
        begin="-0.2752293577981651s" repeatCount="indefinite"></animate>
    </rect>
  </g>
  <g transform="rotate(252 50 50)">
    <rect x="44" y="15.5" rx="6" ry="7.5" width="12" height="15" fill="#e9a431">
      <animate attributeName="opacity" values="1;0" keyTimes="0;1" dur="0.9174311926605504s"
        begin="-0.2660550458715596s" repeatCount="indefinite"></animate>
    </rect>
  </g>
  <g transform="rotate(255.6 50 50)">
    <rect x="44" y="15.5" rx="6" ry="7.5" width="12" height="15" fill="#e9a431">
      <animate attributeName="opacity" values="1;0" keyTimes="0;1" dur="0.9174311926605504s"
        begin="-0.2568807339449541s" repeatCount="indefinite"></animate>
    </rect>
  </g>
  <g transform="rotate(259.2 50 50)">
    <rect x="44" y="15.5" rx="6" ry="7.5" width="12" height="15" fill="#e9a431">
      <animate attributeName="opacity" values="1;0" keyTimes="0;1" dur="0.9174311926605504s"
        begin="-0.24770642201834858s" repeatCount="indefinite"></animate>
    </rect>
  </g>
  <g transform="rotate(262.8 50 50)">
    <rect x="44" y="15.5" rx="6" ry="7.5" width="12" height="15" fill="#e9a431">
      <animate attributeName="opacity" values="1;0" keyTimes="0;1" dur="0.9174311926605504s"
        begin="-0.23853211009174308s" repeatCount="indefinite"></animate>
    </rect>
  </g>
  <g transform="rotate(266.4 50 50)">
    <rect x="44" y="15.5" rx="6" ry="7.5" width="12" height="15" fill="#e9a431">
      <animate attributeName="opacity" values="1;0" keyTimes="0;1" dur="0.9174311926605504s"
        begin="-0.22935779816513757s" repeatCount="indefinite"></animate>
    </rect>
  </g>
  <g transform="rotate(270 50 50)">
    <rect x="44" y="15.5" rx="6" ry="7.5" width="12" height="15" fill="#e9a431">
      <animate attributeName="opacity" values="1;0" keyTimes="0;1" dur="0.9174311926605504s"
        begin="-0.2201834862385321s" repeatCount="indefinite"></animate>
    </rect>
  </g>
  <g transform="rotate(273.6 50 50)">
    <rect x="44" y="15.5" rx="6" ry="7.5" width="12" height="15" fill="#e9a431">
      <animate attributeName="opacity" values="1;0" keyTimes="0;1" dur="0.9174311926605504s"
        begin="-0.2110091743119266s" repeatCount="indefinite"></animate>
    </rect>
  </g>
  <g transform="rotate(277.2 50 50)">
    <rect x="44" y="15.5" rx="6" ry="7.5" width="12" height="15" fill="#e9a431">
      <animate attributeName="opacity" values="1;0" keyTimes="0;1" dur="0.9174311926605504s"
        begin="-0.20183486238532108s" repeatCount="indefinite"></animate>
    </rect>
  </g>
  <g transform="rotate(280.8 50 50)">
    <rect x="44" y="15.5" rx="6" ry="7.5" width="12" height="15" fill="#e9a431">
      <animate attributeName="opacity" values="1;0" keyTimes="0;1" dur="0.9174311926605504s"
        begin="-0.19266055045871558s" repeatCount="indefinite"></animate>
    </rect>
  </g>
  <g transform="rotate(284.4 50 50)">
    <rect x="44" y="15.5" rx="6" ry="7.5" width="12" height="15" fill="#e9a431">
      <animate attributeName="opacity" values="1;0" keyTimes="0;1" dur="0.9174311926605504s"
        begin="-0.18348623853211007s" repeatCount="indefinite"></animate>
    </rect>
  </g>
  <g transform="rotate(288 50 50)">
    <rect x="44" y="15.5" rx="6" ry="7.5" width="12" height="15" fill="#e9a431">
      <animate attributeName="opacity" values="1;0" keyTimes="0;1" dur="0.9174311926605504s"
        begin="-0.17431192660550457s" repeatCount="indefinite"></animate>
    </rect>
  </g>
  <g transform="rotate(291.6 50 50)">
    <rect x="44" y="15.5" rx="6" ry="7.5" width="12" height="15" fill="#e9a431">
      <animate attributeName="opacity" values="1;0" keyTimes="0;1" dur="0.9174311926605504s"
        begin="-0.16513761467889906s" repeatCount="indefinite"></animate>
    </rect>
  </g>
  <g transform="rotate(295.2 50 50)">
    <rect x="44" y="15.5" rx="6" ry="7.5" width="12" height="15" fill="#e9a431">
      <animate attributeName="opacity" values="1;0" keyTimes="0;1" dur="0.9174311926605504s"
        begin="-0.15596330275229356s" repeatCount="indefinite"></animate>
    </rect>
  </g>
  <g transform="rotate(298.8 50 50)">
    <rect x="44" y="15.5" rx="6" ry="7.5" width="12" height="15" fill="#e9a431">
      <animate attributeName="opacity" values="1;0" keyTimes="0;1" dur="0.9174311926605504s"
        begin="-0.14678899082568805s" repeatCount="indefinite"></animate>
    </rect>
  </g>
  <g transform="rotate(302.4 50 50)">
    <rect x="44" y="15.5" rx="6" ry="7.5" width="12" height="15" fill="#e9a431">
      <animate attributeName="opacity" values="1;0" keyTimes="0;1" dur="0.9174311926605504s"
        begin="-0.13761467889908255s" repeatCount="indefinite"></animate>
    </rect>
  </g>
  <g transform="rotate(306 50 50)">
    <rect x="44" y="15.5" rx="6" ry="7.5" width="12" height="15" fill="#e9a431">
      <animate attributeName="opacity" values="1;0" keyTimes="0;1" dur="0.9174311926605504s"
        begin="-0.12844036697247704s" repeatCount="indefinite"></animate>
    </rect>
  </g>
  <g transform="rotate(309.6 50 50)">
    <rect x="44" y="15.5" rx="6" ry="7.5" width="12" height="15" fill="#e9a431">
      <animate attributeName="opacity" values="1;0" keyTimes="0;1" dur="0.9174311926605504s"
        begin="-0.11926605504587154s" repeatCount="indefinite"></animate>
    </rect>
  </g>
  <g transform="rotate(313.2 50 50)">
    <rect x="44" y="15.5" rx="6" ry="7.5" width="12" height="15" fill="#e9a431">
      <animate attributeName="opacity" values="1;0" keyTimes="0;1" dur="0.9174311926605504s"
        begin="-0.11009174311926605s" repeatCount="indefinite"></animate>
    </rect>
  </g>
  <g transform="rotate(316.8 50 50)">
    <rect x="44" y="15.5" rx="6" ry="7.5" width="12" height="15" fill="#e9a431">
      <animate attributeName="opacity" values="1;0" keyTimes="0;1" dur="0.9174311926605504s"
        begin="-0.10091743119266054s" repeatCount="indefinite"></animate>
    </rect>
  </g>
  <g transform="rotate(320.4 50 50)">
    <rect x="44" y="15.5" rx="6" ry="7.5" width="12" height="15" fill="#e9a431">
      <animate attributeName="opacity" values="1;0" keyTimes="0;1" dur="0.9174311926605504s"
        begin="-0.09174311926605504s" repeatCount="indefinite"></animate>
    </rect>
  </g>
  <g transform="rotate(324 50 50)">
    <rect x="44" y="15.5" rx="6" ry="7.5" width="12" height="15" fill="#e9a431">
      <animate attributeName="opacity" values="1;0" keyTimes="0;1" dur="0.9174311926605504s"
        begin="-0.08256880733944953s" repeatCount="indefinite"></animate>
    </rect>
  </g>
  <g transform="rotate(327.6 50 50)">
    <rect x="44" y="15.5" rx="6" ry="7.5" width="12" height="15" fill="#e9a431">
      <animate attributeName="opacity" values="1;0" keyTimes="0;1" dur="0.9174311926605504s"
        begin="-0.07339449541284403s" repeatCount="indefinite"></animate>
    </rect>
  </g>
  <g transform="rotate(331.2 50 50)">
    <rect x="44" y="15.5" rx="6" ry="7.5" width="12" height="15" fill="#e9a431">
      <animate attributeName="opacity" values="1;0" keyTimes="0;1" dur="0.9174311926605504s"
        begin="-0.06422018348623852s" repeatCount="indefinite"></animate>
    </rect>
  </g>
  <g transform="rotate(334.8 50 50)">
    <rect x="44" y="15.5" rx="6" ry="7.5" width="12" height="15" fill="#e9a431">
      <animate attributeName="opacity" values="1;0" keyTimes="0;1" dur="0.9174311926605504s"
        begin="-0.055045871559633024s" repeatCount="indefinite"></animate>
    </rect>
  </g>
  <g transform="rotate(338.4 50 50)">
    <rect x="44" y="15.5" rx="6" ry="7.5" width="12" height="15" fill="#e9a431">
      <animate attributeName="opacity" values="1;0" keyTimes="0;1" dur="0.9174311926605504s"
        begin="-0.04587155963302752s" repeatCount="indefinite"></animate>
    </rect>
  </g>
  <g transform="rotate(342 50 50)">
    <rect x="44" y="15.5" rx="6" ry="7.5" width="12" height="15" fill="#e9a431">
      <animate attributeName="opacity" values="1;0" keyTimes="0;1" dur="0.9174311926605504s"
        begin="-0.03669724770642201s" repeatCount="indefinite"></animate>
    </rect>
  </g>
  <g transform="rotate(345.6 50 50)">
    <rect x="44" y="15.5" rx="6" ry="7.5" width="12" height="15" fill="#e9a431">
      <animate attributeName="opacity" values="1;0" keyTimes="0;1" dur="0.9174311926605504s"
        begin="-0.027522935779816512s" repeatCount="indefinite"></animate>
    </rect>
  </g>
  <g transform="rotate(349.2 50 50)">
    <rect x="44" y="15.5" rx="6" ry="7.5" width="12" height="15" fill="#e9a431">
      <animate attributeName="opacity" values="1;0" keyTimes="0;1" dur="0.9174311926605504s"
        begin="-0.018348623853211007s" repeatCount="indefinite"></animate>
    </rect>
  </g>
  <g transform="rotate(352.8 50 50)">
    <rect x="44" y="15.5" rx="6" ry="7.5" width="12" height="15" fill="#e9a431">
      <animate attributeName="opacity" values="1;0" keyTimes="0;1" dur="0.9174311926605504s"
        begin="-0.009174311926605503s" repeatCount="indefinite"></animate>
    </rect>
  </g>
  <g transform="rotate(356.4 50 50)">
    <rect x="44" y="15.5" rx="6" ry="7.5" width="12" height="15" fill="#e9a431">
      <animate attributeName="opacity" values="1;0" keyTimes="0;1" dur="0.9174311926605504s" begin="0s"
        repeatCount="indefinite"></animate>
    </rect>
  </g>
  <!-- [ldio] generated by https://loading.io/ -->
</svg>